<svg id="Layer_1" data-name="Layer 1" xmlns="http://www.w3.org/2000/svg" viewBox="0 0 128 128"><defs><style>.cls-1,.cls-4{fill:none;stroke:#000;stroke-linecap:round;stroke-miterlimit:10;}.cls-2{fill:#f46767;}.cls-3{fill:#fff;}.cls-4{stroke-width:8px;}</style></defs><title>Artboard 3</title><path class="cls-1" d="M109.67,63.94c0,25.59-20.51,46.33-45.81,46.33S18.05,89.53,18.05,63.94a46.34,46.34,0,0,1,1.38-11.31,23.19,23.19,0,0,0,5.62.68,24.4,24.4,0,0,0,23.4-17.82,40,40,0,0,0,37,25.11,39.45,39.45,0,0,0,23-7.36A47.11,47.11,0,0,1,109.67,63.94Z"/><path class="cls-1" d="M108.44,53.24a39.45,39.45,0,0,1-23,7.36,40,40,0,0,1-37-25.11,24.4,24.4,0,0,1-23.4,17.82,23.19,23.19,0,0,1-5.62-.68A46.3,46.3,0,0,1,45.52,21.48c.81-.37,1.64-.7,2.48-1a45.33,45.33,0,0,1,15.86-2.85A46,46,0,0,1,108.44,53.24Z"/><path d="M19.43,52.63s20.9,6.27,29-17.71c0,0,4.77,16.33,23.88,23.46,0,0,20.74,6.9,36.11-5.14,0,0-4.83-32.57-44.58-35.63C63.86,17.61,30.67,15.67,19.43,52.63Z"/><ellipse cx="45.18" cy="70.23" rx="5.85" ry="7.39"/><ellipse cx="81.22" cy="70.23" rx="5.85" ry="7.39"/><path d="M52.66,92.15s10.86,11.67,22.4,0Z"/><ellipse class="cls-2" cx="40.97" cy="85.65" rx="4.22" ry="1.49"/><ellipse class="cls-2" cx="85.44" cy="85.65" rx="4.22" ry="1.49"/><ellipse class="cls-3" cx="41.46" cy="64.99" rx="2.13" ry="2.15"/><ellipse class="cls-3" cx="76.36" cy="66.09" rx="2.13" ry="2.15"/><line class="cls-4" x1="29.91" y1="88.36" x2="29.91" y2="106.32"/><line class="cls-4" x1="20.93" y1="97.13" x2="38.89" y2="97.13"/></svg>