<svg xmlns="http://www.w3.org/2000/svg" viewBox="0 0 64 64"><defs><style>.cls-1{fill:#548ae2;}.cls-2,.cls-4,.cls-5,.cls-6,.cls-7,.cls-8{fill:none;stroke-miterlimit:10;}.cls-2,.cls-4,.cls-5{stroke:#000;}.cls-2{stroke-width:0.75px;}.cls-3{fill:#fff;}.cls-4,.cls-5,.cls-6,.cls-7,.cls-8{stroke-width:0.5px;}.cls-4{opacity:0.5;}.cls-5{opacity:0.51;}.cls-6{stroke:#e22727;}.cls-7{stroke:#1ea51e;}.cls-8{stroke:#fff;}</style></defs><title>Artboard 2</title><g id="Layer_3" data-name="Layer 3"><path class="cls-1" d="M54.77,9h-45a4.38,4.38,0,0,0-2.6,1.23A4.47,4.47,0,0,0,5.88,13.3c0,4.89,0,10.24,0,11.89v2.44c0,2.22,0,14.19,0,22.13a4.36,4.36,0,0,0,4.36,4.36h45a4.35,4.35,0,0,0,3.87-4.31V13.35A4.36,4.36,0,0,0,54.77,9Z"/><path class="cls-2" d="M4.87,25.22V13.34a4.47,4.47,0,0,1,1.28-3.09A4.35,4.35,0,0,1,9.23,9H54.89a4.37,4.37,0,0,1,4.36,4.37V49.79a4.36,4.36,0,0,1-4.36,4.36H9.23a4.36,4.36,0,0,1-4.36-4.36c0-7.94,0-19.91,0-22.13"/><rect class="cls-3" x="8.67" y="11.86" width="46.78" height="39.34" rx="3.11"/><line class="cls-4" x1="11.14" y1="11.86" x2="11.14" y2="51.2"/><line class="cls-4" x1="13.34" y1="11.86" x2="13.34" y2="51.2"/><line class="cls-4" x1="15.54" y1="11.86" x2="15.54" y2="51.2"/><line class="cls-4" x1="17.75" y1="11.86" x2="17.75" y2="51.2"/><line class="cls-4" x1="19.95" y1="11.86" x2="19.95" y2="51.2"/><line class="cls-4" x1="22.15" y1="11.86" x2="22.15" y2="51.2"/><line class="cls-4" x1="24.35" y1="11.86" x2="24.35" y2="51.2"/><line class="cls-4" x1="26.56" y1="11.86" x2="26.56" y2="51.2"/><line class="cls-4" x1="28.76" y1="11.86" x2="28.76" y2="51.2"/><line class="cls-4" x1="30.96" y1="11.86" x2="30.96" y2="51.2"/><line class="cls-4" x1="33.16" y1="11.86" x2="33.16" y2="51.2"/><line class="cls-4" x1="35.37" y1="11.86" x2="35.37" y2="51.2"/><line class="cls-4" x1="37.57" y1="11.86" x2="37.57" y2="51.2"/><line class="cls-4" x1="39.77" y1="11.86" x2="39.77" y2="51.2"/><line class="cls-4" x1="41.97" y1="11.86" x2="41.97" y2="51.2"/><line class="cls-4" x1="44.18" y1="11.86" x2="44.18" y2="51.2"/><line class="cls-4" x1="46.38" y1="11.86" x2="46.38" y2="51.2"/><line class="cls-4" x1="48.58" y1="11.86" x2="48.58" y2="51.2"/><line class="cls-4" x1="50.78" y1="11.86" x2="50.78" y2="51.2"/><line class="cls-4" x1="52.99" y1="11.86" x2="52.99" y2="51.2"/><line class="cls-5" x1="8.67" y1="14.97" x2="55.46" y2="14.97"/><line class="cls-4" x1="8.67" y1="18.32" x2="55.46" y2="18.32"/><line class="cls-4" x1="8.67" y1="21.66" x2="55.46" y2="21.66"/><line class="cls-4" x1="8.67" y1="25" x2="55.46" y2="25"/><line class="cls-4" x1="8.67" y1="28.34" x2="55.46" y2="28.34"/><line class="cls-4" x1="8.67" y1="31.68" x2="55.46" y2="31.68"/><line class="cls-4" x1="8.67" y1="35.03" x2="55.46" y2="35.03"/><line class="cls-4" x1="8.67" y1="38.37" x2="55.46" y2="38.37"/><line class="cls-4" x1="8.67" y1="41.71" x2="55.46" y2="41.71"/><line class="cls-4" x1="8.67" y1="45.05" x2="55.46" y2="45.05"/><line class="cls-4" x1="8.67" y1="48.39" x2="55.46" y2="48.39"/><path class="cls-6" d="M8.67,43.46s7.14-10.79,17.89-15.12S51.16,15,51.16,15L53,13.8"/><path class="cls-7" d="M9.08,45.05s7.75-10.36,18.73-14S53.16,19.09,53.16,19.09L55.05,18"/><line class="cls-8" x1="8.67" y1="14.97" x2="7.34" y2="14.97"/><line class="cls-8" x1="8.73" y1="18.32" x2="7.4" y2="18.32"/><line class="cls-8" x1="8.78" y1="21.66" x2="7.46" y2="21.66"/><line class="cls-8" x1="8.84" y1="25" x2="7.51" y2="25"/><line class="cls-8" x1="8.9" y1="28.34" x2="7.57" y2="28.34"/><line class="cls-8" x1="8.96" y1="31.68" x2="7.63" y2="31.68"/><line class="cls-8" x1="9.01" y1="35.03" x2="7.68" y2="35.03"/><line class="cls-8" x1="9.07" y1="38.37" x2="7.74" y2="38.37"/><line class="cls-8" x1="9.13" y1="41.71" x2="7.8" y2="41.71"/><line class="cls-8" x1="9.18" y1="45.05" x2="7.85" y2="45.05"/><line class="cls-8" x1="9.24" y1="48.39" x2="7.91" y2="48.39"/><line class="cls-8" x1="11.14" y1="51.2" x2="11.14" y2="52.38"/><line class="cls-8" x1="13.34" y1="51.2" x2="13.34" y2="52.38"/><line class="cls-8" x1="15.54" y1="51.2" x2="15.54" y2="52.38"/><line class="cls-8" x1="17.75" y1="51.2" x2="17.75" y2="52.38"/><line class="cls-8" x1="19.95" y1="51.2" x2="19.95" y2="52.38"/><line class="cls-8" x1="22.15" y1="51.2" x2="22.15" y2="52.38"/><line class="cls-8" x1="24.35" y1="51.2" x2="24.35" y2="52.38"/><line class="cls-8" x1="26.56" y1="51.2" x2="26.56" y2="52.38"/><line class="cls-8" x1="28.76" y1="51.2" x2="28.76" y2="52.38"/><line class="cls-8" x1="30.96" y1="51.2" x2="30.96" y2="52.38"/><line class="cls-8" x1="33.16" y1="51.2" x2="33.16" y2="52.38"/><line class="cls-8" x1="35.37" y1="51.2" x2="35.37" y2="52.38"/><line class="cls-8" x1="37.57" y1="51.2" x2="37.57" y2="52.38"/><line class="cls-8" x1="39.77" y1="51.2" x2="39.77" y2="52.38"/><line class="cls-8" x1="41.97" y1="51.2" x2="41.97" y2="52.38"/><line class="cls-8" x1="44.18" y1="51.2" x2="44.18" y2="52.38"/><line class="cls-8" x1="46.38" y1="51.2" x2="46.38" y2="52.38"/><line class="cls-8" x1="48.58" y1="51.2" x2="48.58" y2="52.38"/><line class="cls-8" x1="50.78" y1="51.2" x2="50.78" y2="52.38"/><line class="cls-8" x1="52.99" y1="51.2" x2="52.99" y2="52.38"/></g></svg>