<svg id="Layer_1" data-name="Layer 1" xmlns="http://www.w3.org/2000/svg" viewBox="0 0 128 128"><defs><style>.cls-1,.cls-3{fill:none;}.cls-2{fill:#548ae2;}.cls-3{stroke:#000;stroke-linecap:round;stroke-miterlimit:10;}</style></defs><title>Artboard 1</title><path class="cls-1" d="M54.17,18.58A11.5,11.5,0,0,1,64.84,7.12c-.28,0-.56,0-.84,0a11.5,11.5,0,0,0,0,23c.28,0,.56,0,.84,0A11.5,11.5,0,0,1,54.17,18.58Z"/><ellipse class="cls-2" cx="64.84" cy="18.58" rx="10.66" ry="11.46"/><path class="cls-3" d="M53,15.17c.11-.33.22-.65.35-1a11.51,11.51,0,1,1-.86,4.37,13.39,13.39,0,0,1,.15-1.86"/><path class="cls-1" d="M99.52,73.93,85.8,59.41v2.65L97,73.93a7.94,7.94,0,0,0,7,2.37A7.9,7.9,0,0,1,99.52,73.93Z"/><path class="cls-1" d="M46.92,113.67V59.42l-2.51,2.65v51.6a7.91,7.91,0,0,0,7.9,7.91h0a7.45,7.45,0,0,0,1.25-.11A7.9,7.9,0,0,1,46.92,113.67Z"/><path class="cls-1" d="M21.73,63.07,46.47,37l.6-.34.46-.13H45l-.46.13L44,37,19.23,63.07a7.89,7.89,0,0,0,7,13.23,7.91,7.91,0,0,1-4.45-13.23Z"/><path class="cls-1" d="M70,113.67V85H67.48v28.7a7.91,7.91,0,0,0,7.9,7.91h0a7.45,7.45,0,0,0,1.25-.11A7.9,7.9,0,0,1,70,113.67Z"/><path class="cls-2" d="M99.52,73.93A7.9,7.9,0,0,0,104,76.3a7.86,7.86,0,0,0,4.15-2.06h0a7.9,7.9,0,0,0,.32-11.18L84,37.14l-.71-.43-.71-.19h-35l-.46.13-.6.34L21.73,63.07A7.91,7.91,0,0,0,26.18,76.3a7.87,7.87,0,0,0,4.52-2.37L44.41,59.42v2.65l2.51-2.65v54.25a7.9,7.9,0,0,0,6.65,7.8,7.9,7.9,0,0,0,6.65-7.8V85H70v28.7a7.9,7.9,0,0,0,6.65,7.8,7.9,7.9,0,0,0,6.65-7.8V59.41l2.51,2.65V59.41Z"/><path class="cls-3" d="M32.83,48.73,44,37l.61-.34.46-.13H82.58l.71.19.71.43,24.5,25.92a7.91,7.91,0,0,1-.31,11.18h0A7.91,7.91,0,0,1,97,73.93L83.29,59.41v54.26a7.91,7.91,0,0,1-7.91,7.91h0a7.91,7.91,0,0,1-7.9-7.91V85H60.22v28.7a7.91,7.91,0,0,1-7.91,7.91h0a7.91,7.91,0,0,1-7.9-7.91V59.42L30.7,73.93a7.9,7.9,0,0,1-11.17.31h0a7.89,7.89,0,0,1-.3-11.17c1.79-1.89,3.05-3.25,10.28-10.85.31-.31.55-.58.71-.75"/></svg>