<svg xmlns="http://www.w3.org/2000/svg" viewBox="0 0 64 64"><defs><style>.cls-1{fill:#548ae2;}.cls-2,.cls-5{fill:none;}.cls-2,.cls-4{stroke:#000;stroke-miterlimit:10;stroke-width:0.75px;}.cls-3{fill:#e5e5e5;}.cls-4{fill:#fff;}.cls-6{fill:#231f20;}</style></defs><title>Artboard 5</title><g id="Layer_5" data-name="Layer 5"><rect class="cls-1" x="9.63" y="18.05" width="21.92" height="28.65"/><path class="cls-2" d="M8.37,26.68V17.83H31.55V46.48H8.37V29"/><rect class="cls-1" x="30.95" y="17.43" width="23.18" height="28.65"/><rect class="cls-3" x="10.34" y="17.95" width="20.51" height="27.62"/><rect class="cls-3" x="32.9" y="17.95" width="20.51" height="27.62"/><path class="cls-4" d="M31.55,46.08C25.41,44.17,20.79,41.47,12,43.85V14.4a35.52,35.52,0,0,1,7.62-.47c4.17.11,9.07.91,12,3.67Z"/><rect class="cls-2" x="32.1" y="17.83" width="23.18" height="28.65" transform="translate(87.38 64.31) rotate(180)"/><path class="cls-4" d="M51.69,35.68V14.4a35.52,35.52,0,0,0-7.62-.47c-4.17.11-9.07.91-12,3.67V46.08c6.14-1.91,10.76-4.61,19.59-2.23V37.77"/><path class="cls-5" d="M16.06,20.44a41.15,41.15,0,0,1,4.16,0l.16-3.74a44,44,0,0,0-4.59,0Z"/><path class="cls-6" d="M16.94,18.71c.78,0,1.56,0,2.35,0v-.37c-.78,0-1.57,0-2.36,0Z"/><polygon class="cls-6" points="16.12 18.75 16.1 18.38 16.57 18.35 16.59 18.73 16.12 18.75"/><polygon class="cls-6" points="19.64 18.7 19.65 18.33 20.12 18.35 20.11 18.72 19.64 18.7"/><path class="cls-5" d="M20.22,20.41a28.31,28.31,0,0,1,4.07.45L25,17.18a32,32,0,0,0-4.62-.51Z"/><path class="cls-6" d="M21.29,18.78c.78.06,1.56.13,2.33.25l.06-.37c-.79-.12-1.57-.2-2.36-.25Z"/><rect class="cls-6" x="20.53" y="18.33" width="0.38" height="0.47" transform="translate(1.19 38.37) rotate(-87.27)"/><path class="cls-6" d="M24,19.08l.06-.37.46.09-.06.37Z"/><path class="cls-5" d="M24.29,20.86a9.73,9.73,0,0,1,3.38,1.19L29.78,19A13.33,13.33,0,0,0,25,17.18Z"/><path class="cls-6" d="M25.58,19.41a11.82,11.82,0,0,1,2.19.76l.16-.33a11.44,11.44,0,0,0-2.26-.79Z"/><path class="cls-6" d="M24.78,19.24l.08-.37a3.78,3.78,0,0,1,.46.1l-.08.36C25.09,19.29,24.94,19.27,24.78,19.24Z"/><polygon class="cls-6" points="28.07 20.34 28.25 20.01 28.67 20.25 28.46 20.57 28.07 20.34"/><path class="cls-5" d="M15.8,24a40.93,40.93,0,0,1,4.15,0l.16-3.75a44,44,0,0,0-4.59,0Z"/><path class="cls-6" d="M16.67,22.23c.78,0,1.57,0,2.35,0v-.38c-.79,0-1.58,0-2.37,0Z"/><polygon class="cls-6" points="15.85 22.26 15.83 21.89 16.3 21.87 16.32 22.24 15.85 22.26"/><polygon class="cls-6" points="19.37 22.22 19.38 21.84 19.85 21.86 19.84 22.23 19.37 22.22"/><path class="cls-5" d="M20,23.93a28.16,28.16,0,0,1,4.07.44l.71-3.68a32,32,0,0,0-4.62-.51Z"/><path class="cls-6" d="M21,22.3c.77.05,1.55.13,2.32.25l.06-.38c-.78-.12-1.57-.19-2.36-.25Z"/><rect class="cls-6" x="20.26" y="21.84" width="0.37" height="0.47" transform="translate(-2.58 41.45) rotate(-87.27)"/><path class="cls-6" d="M23.7,22.6l.06-.37.47.08-.07.37Z"/><path class="cls-5" d="M24,24.37a9.86,9.86,0,0,1,3.38,1.19l2.12-3.09a13.22,13.22,0,0,0-4.79-1.78Z"/><path class="cls-6" d="M25.31,22.93a11.13,11.13,0,0,1,2.19.76l.16-.34a12.24,12.24,0,0,0-2.25-.78Z"/><path class="cls-6" d="M24.52,22.75l.07-.37.47.1-.09.37A3.63,3.63,0,0,0,24.52,22.75Z"/><polygon class="cls-6" points="27.8 23.85 27.98 23.52 28.4 23.77 28.2 24.08 27.8 23.85"/><path class="cls-5" d="M16.08,27.49a41.15,41.15,0,0,1,4.16,0l.16-3.74a44,44,0,0,0-4.59,0Z"/><path class="cls-6" d="M17,25.76c.78,0,1.57,0,2.35,0v-.37c-.78,0-1.57,0-2.36,0Z"/><polygon class="cls-6" points="16.14 25.8 16.12 25.43 16.59 25.4 16.61 25.78 16.14 25.8"/><polygon class="cls-6" points="19.66 25.75 19.67 25.38 20.14 25.39 20.13 25.77 19.66 25.75"/><path class="cls-5" d="M20.24,27.46a27,27,0,0,1,4.07.45L25,24.23a32,32,0,0,0-4.62-.51Z"/><path class="cls-6" d="M21.31,25.83c.78.06,1.56.13,2.33.25l.06-.37c-.79-.12-1.57-.2-2.36-.25Z"/><rect class="cls-6" x="20.55" y="25.38" width="0.37" height="0.47" transform="translate(-5.83 45.1) rotate(-87.27)"/><path class="cls-6" d="M24,26.13l.06-.37.46.09-.06.37Z"/><path class="cls-5" d="M24.31,27.91a9.73,9.73,0,0,1,3.38,1.19L29.81,26A13.38,13.38,0,0,0,25,24.23Z"/><path class="cls-6" d="M25.6,26.46a11.82,11.82,0,0,1,2.19.76l.16-.34a12.08,12.08,0,0,0-2.26-.78Z"/><path class="cls-6" d="M24.8,26.29l.08-.37a3.78,3.78,0,0,1,.46.1l-.08.36C25.11,26.34,25,26.32,24.8,26.29Z"/><polygon class="cls-6" points="28.09 27.39 28.27 27.06 28.69 27.3 28.48 27.61 28.09 27.39"/><path class="cls-5" d="M15.82,30.45a38.44,38.44,0,0,1,4.16,0l.16-3.75a44,44,0,0,0-4.59,0Z"/><path class="cls-6" d="M16.7,28.72c.78,0,1.56,0,2.35,0v-.38c-.79,0-1.58,0-2.36,0Z"/><polygon class="cls-6" points="15.88 28.76 15.86 28.39 16.33 28.36 16.35 28.74 15.88 28.76"/><polygon class="cls-6" points="19.39 28.72 19.41 28.34 19.88 28.36 19.86 28.73 19.39 28.72"/><path class="cls-5" d="M20,30.43a28.18,28.18,0,0,1,4.06.44l.72-3.68a32.16,32.16,0,0,0-4.62-.51Z"/><path class="cls-6" d="M21.05,28.8c.78.05,1.56.12,2.33.24l.05-.37c-.78-.12-1.57-.2-2.35-.25Z"/><rect class="cls-6" x="20.29" y="28.34" width="0.37" height="0.47" transform="translate(-9.04 47.66) rotate(-87.27)"/><path class="cls-6" d="M23.72,29.1l.06-.37.47.08-.07.37Z"/><path class="cls-5" d="M24,30.87a10,10,0,0,1,3.39,1.19L29.54,29a13.33,13.33,0,0,0-4.78-1.77Z"/><path class="cls-6" d="M25.34,29.43a11.13,11.13,0,0,1,2.19.76l.16-.34a11.44,11.44,0,0,0-2.26-.79Z"/><path class="cls-6" d="M24.54,29.25l.08-.37.46.1-.08.36C24.85,29.3,24.69,29.28,24.54,29.25Z"/><polygon class="cls-6" points="27.83 30.35 28.01 30.02 28.43 30.26 28.22 30.58 27.83 30.35"/><path class="cls-5" d="M15.56,33.42a41,41,0,0,1,4.15,0l.17-3.75a44,44,0,0,0-4.59,0Z"/><path class="cls-6" d="M16.44,31.69c.78,0,1.56,0,2.34,0v-.38c-.79,0-1.58,0-2.37,0Z"/><polygon class="cls-6" points="15.62 31.73 15.59 31.35 16.07 31.33 16.08 31.7 15.62 31.73"/><polygon class="cls-6" points="19.13 31.68 19.14 31.31 19.62 31.32 19.6 31.7 19.13 31.68"/><path class="cls-5" d="M19.71,33.39a28.16,28.16,0,0,1,4.07.44l.72-3.68a32.16,32.16,0,0,0-4.62-.51Z"/><path class="cls-6" d="M20.79,31.76c.78,0,1.56.13,2.33.25l.05-.37c-.78-.13-1.57-.2-2.36-.26Z"/><rect class="cls-6" x="20.02" y="31.3" width="0.38" height="0.47" transform="translate(-12.25 50.22) rotate(-87.27)"/><path class="cls-6" d="M23.46,32.06l.06-.37.47.08-.07.37Z"/><path class="cls-5" d="M23.78,33.83A10.21,10.21,0,0,1,27.17,35l2.11-3.09a13.24,13.24,0,0,0-4.78-1.78Z"/><path class="cls-6" d="M25.08,32.39a12,12,0,0,1,2.18.76l.17-.34A12.33,12.33,0,0,0,25.17,32Z"/><path class="cls-6" d="M24.28,32.21l.07-.37.47.1-.08.37Z"/><polygon class="cls-6" points="27.56 33.31 27.74 32.98 28.16 33.23 27.96 33.54 27.56 33.31"/><path class="cls-5" d="M15.3,36.38a40.93,40.93,0,0,1,4.15,0l.16-3.74a44,44,0,0,0-4.59,0Z"/><path class="cls-6" d="M16.17,34.65c.79,0,1.57,0,2.35,0v-.37c-.79,0-1.58,0-2.37,0Z"/><polygon class="cls-6" points="15.35 34.69 15.33 34.31 15.8 34.29 15.82 34.66 15.35 34.69"/><polygon class="cls-6" points="18.87 34.64 18.88 34.27 19.35 34.28 19.34 34.66 18.87 34.64"/><path class="cls-5" d="M19.45,36.35a28.16,28.16,0,0,1,4.07.44l.71-3.68a30.62,30.62,0,0,0-4.62-.5Z"/><path class="cls-6" d="M20.53,34.72c.78.05,1.55.13,2.32.25l.06-.37c-.78-.12-1.57-.2-2.36-.25Z"/><rect class="cls-6" x="19.76" y="34.26" width="0.38" height="0.47" transform="translate(-15.46 52.78) rotate(-87.27)"/><path class="cls-6" d="M23.2,35l.06-.37c.16,0,.31.06.47.09l-.07.37Z"/><path class="cls-5" d="M23.52,36.79A9.86,9.86,0,0,1,26.9,38L29,34.89a13.22,13.22,0,0,0-4.79-1.78Z"/><path class="cls-6" d="M24.81,35.35a11.82,11.82,0,0,1,2.19.76l.16-.34A12.24,12.24,0,0,0,24.91,35Z"/><path class="cls-6" d="M24,35.17l.07-.36.47.09-.09.37Z"/><polygon class="cls-6" points="27.3 36.27 27.48 35.94 27.9 36.19 27.7 36.5 27.3 36.27"/><path class="cls-5" d="M15,39.34a41.15,41.15,0,0,1,4.16,0l.16-3.74a44,44,0,0,0-4.59,0Z"/><path class="cls-6" d="M15.91,37.61c.78,0,1.57,0,2.35,0v-.38c-.78,0-1.57,0-2.36,0Z"/><polygon class="cls-6" points="15.09 37.65 15.07 37.28 15.54 37.25 15.56 37.63 15.09 37.65"/><polygon class="cls-6" points="18.61 37.61 18.62 37.23 19.09 37.25 19.08 37.62 18.61 37.61"/><path class="cls-5" d="M19.19,39.31a29.81,29.81,0,0,1,4.07.45L24,36.08a32,32,0,0,0-4.62-.51Z"/><path class="cls-6" d="M20.26,37.68c.78.06,1.56.13,2.33.25l.06-.37c-.79-.12-1.57-.2-2.36-.25Z"/><rect class="cls-6" x="19.5" y="37.23" width="0.37" height="0.47" transform="translate(-18.67 55.34) rotate(-87.27)"/><path class="cls-6" d="M22.94,38l.06-.37.46.09-.06.37Z"/><path class="cls-5" d="M23.26,39.76A9.73,9.73,0,0,1,26.64,41l2.11-3.1A13.26,13.26,0,0,0,24,36.08Z"/><path class="cls-6" d="M24.55,38.32a11.79,11.79,0,0,1,2.19.75l.16-.33A11.44,11.44,0,0,0,24.64,38Z"/><path class="cls-6" d="M23.75,38.14l.08-.37a3.78,3.78,0,0,1,.46.1l-.08.36C24.06,38.19,23.91,38.17,23.75,38.14Z"/><polygon class="cls-6" points="27.04 39.24 27.22 38.91 27.64 39.15 27.43 39.47 27.04 39.24"/><path class="cls-5" d="M47.93,16.72a44,44,0,0,0-4.59,0l.16,3.74a40.93,40.93,0,0,1,4.15,0Z"/><path class="cls-6" d="M46.79,18.36c-.79,0-1.58,0-2.37,0v.38c.78,0,1.57,0,2.35,0Z"/><polygon class="cls-6" points="47.62 18.39 47.6 18.77 47.13 18.75 47.15 18.37 47.62 18.39"/><polygon class="cls-6" points="44.07 18.35 44.08 18.72 43.61 18.74 43.6 18.36 44.07 18.35"/><path class="cls-5" d="M43.34,16.69a32,32,0,0,0-4.62.51l.71,3.68a29.63,29.63,0,0,1,4.07-.45Z"/><path class="cls-6" d="M42.4,18.43c-.79.06-1.58.13-2.36.25l.06.37c.77-.11,1.55-.19,2.32-.24Z"/><rect class="cls-6" x="42.77" y="18.39" width="0.47" height="0.38" transform="translate(-0.84 2.07) rotate(-2.73)"/><path class="cls-6" d="M39.69,18.73l.06.37-.46.09-.07-.37C39.38,18.79,39.53,18.75,39.69,18.73Z"/><path class="cls-5" d="M38.72,17.2A13.38,13.38,0,0,0,33.93,19l2.12,3.1a9.86,9.86,0,0,1,3.38-1.19Z"/><path class="cls-6" d="M38.05,19.08a11.4,11.4,0,0,0-2.26.78l.16.34a11.13,11.13,0,0,1,2.19-.76Z"/><path class="cls-6" d="M38.86,18.89l.07.36-.45.1L38.39,19Z"/><polygon class="cls-6" points="35.47 20.02 35.65 20.35 35.25 20.58 35.05 20.27 35.47 20.02"/><path class="cls-5" d="M48.19,20.24a44,44,0,0,0-4.59,0L43.77,24a41,41,0,0,1,4.15,0Z"/><path class="cls-6" d="M47.06,21.87c-.79,0-1.58,0-2.37,0v.37c.78,0,1.56,0,2.34,0Z"/><polygon class="cls-6" points="47.89 21.91 47.87 22.28 47.4 22.26 47.41 21.89 47.89 21.91"/><polygon class="cls-6" points="44.34 21.86 44.35 22.24 43.88 22.25 43.87 21.88 44.34 21.86"/><path class="cls-5" d="M43.6,20.2a32.31,32.31,0,0,0-4.62.51l.72,3.68A28.16,28.16,0,0,1,43.77,24Z"/><path class="cls-6" d="M42.67,22c-.79.05-1.58.13-2.36.25l0,.37c.77-.12,1.55-.2,2.33-.25Z"/><rect class="cls-6" x="43.03" y="21.91" width="0.47" height="0.38" transform="translate(-1 2.08) rotate(-2.73)"/><path class="cls-6" d="M40,22.25l.06.37-.46.08-.07-.37Z"/><path class="cls-5" d="M39,20.71a13.24,13.24,0,0,0-4.78,1.78l2.11,3.1a10,10,0,0,1,3.39-1.2Z"/><path class="cls-6" d="M38.31,22.59a12.33,12.33,0,0,0-2.26.78l.17.34A12,12,0,0,1,38.4,23Z"/><path class="cls-6" d="M39.13,22.4l.07.37c-.15,0-.31.05-.46.09l-.08-.36Z"/><polygon class="cls-6" points="35.73 23.54 35.91 23.87 35.52 24.1 35.32 23.78 35.73 23.54"/><path class="cls-5" d="M47.9,23.77a43.8,43.8,0,0,0-4.58,0l.16,3.74a41,41,0,0,1,4.15,0Z"/><path class="cls-6" d="M46.77,25.41c-.79,0-1.58,0-2.37,0v.38c.78,0,1.56,0,2.35,0Z"/><polygon class="cls-6" points="47.6 25.44 47.58 25.82 47.11 25.8 47.13 25.42 47.6 25.44"/><polygon class="cls-6" points="44.05 25.4 44.06 25.77 43.59 25.79 43.58 25.41 44.05 25.4"/><path class="cls-5" d="M43.32,23.74a32,32,0,0,0-4.62.51l.71,3.68a29.63,29.63,0,0,1,4.07-.45Z"/><path class="cls-6" d="M42.38,25.48c-.79.06-1.58.13-2.36.25l.06.37c.77-.11,1.54-.19,2.32-.24Z"/><rect class="cls-6" x="42.74" y="25.44" width="0.47" height="0.38" transform="translate(-1.17 2.07) rotate(-2.73)"/><path class="cls-6" d="M39.67,25.78l.06.37-.46.08-.07-.36C39.36,25.84,39.51,25.8,39.67,25.78Z"/><path class="cls-5" d="M38.7,24.25A13.38,13.38,0,0,0,33.91,26L36,29.12a9.78,9.78,0,0,1,3.39-1.19Z"/><path class="cls-6" d="M38,26.12a12.28,12.28,0,0,0-2.25.79l.16.34a11.13,11.13,0,0,1,2.19-.76Z"/><path class="cls-6" d="M38.84,25.94l.07.36-.45.1L38.37,26Z"/><polygon class="cls-6" points="35.45 27.07 35.63 27.4 35.23 27.63 35.03 27.32 35.45 27.07"/><path class="cls-5" d="M48.17,26.74a44,44,0,0,0-4.59,0l.16,3.75a41.15,41.15,0,0,1,4.16,0Z"/><path class="cls-6" d="M47,28.37c-.79,0-1.58,0-2.36,0v.37c.78,0,1.57,0,2.35,0Z"/><polygon class="cls-6" points="47.86 28.41 47.84 28.78 47.37 28.76 47.39 28.38 47.86 28.41"/><polygon class="cls-6" points="44.31 28.36 44.32 28.74 43.85 28.75 43.84 28.38 44.31 28.36"/><path class="cls-5" d="M43.58,26.7a32,32,0,0,0-4.62.51l.71,3.68a28.32,28.32,0,0,1,4.07-.44Z"/><path class="cls-6" d="M42.64,28.44c-.79.06-1.57.14-2.36.26l.06.37c.77-.12,1.55-.2,2.33-.25Z"/><rect class="cls-6" x="43.01" y="28.4" width="0.47" height="0.38" transform="translate(-1.31 2.09) rotate(-2.73)"/><path class="cls-6" d="M39.93,28.74l.06.37-.46.09-.06-.37Z"/><path class="cls-5" d="M39,27.21A13.22,13.22,0,0,0,34.17,29l2.12,3.09a9.93,9.93,0,0,1,3.38-1.19Z"/><path class="cls-6" d="M38.29,29.09a12.08,12.08,0,0,0-2.26.78l.16.34a11.82,11.82,0,0,1,2.19-.76Z"/><path class="cls-6" d="M39.1,28.9l.07.37-.45.09L38.63,29A3.94,3.94,0,0,1,39.1,28.9Z"/><polygon class="cls-6" points="35.71 30.04 35.89 30.37 35.49 30.6 35.29 30.28 35.71 30.04"/><path class="cls-5" d="M48.43,29.7a44,44,0,0,0-4.59,0L44,33.41a41.15,41.15,0,0,1,4.16,0Z"/><path class="cls-6" d="M47.29,31.33c-.78,0-1.57,0-2.36,0v.37c.78,0,1.56,0,2.34,0Z"/><polygon class="cls-6" points="48.13 31.37 48.1 31.74 47.63 31.72 47.65 31.35 48.13 31.37"/><polygon class="cls-6" points="44.58 31.32 44.59 31.7 44.12 31.71 44.1 31.34 44.58 31.32"/><path class="cls-5" d="M43.84,29.66a32.16,32.16,0,0,0-4.62.51l.72,3.68A28.18,28.18,0,0,1,44,33.41Z"/><path class="cls-6" d="M42.9,31.41c-.78.05-1.57.13-2.35.25l.05.37c.77-.12,1.55-.2,2.33-.25Z"/><rect class="cls-6" x="43.27" y="31.37" width="0.47" height="0.37" transform="translate(-1.45 2.11) rotate(-2.73)"/><path class="cls-6" d="M40.2,31.71l.06.37-.46.08-.07-.37Z"/><path class="cls-5" d="M39.22,30.17A13.17,13.17,0,0,0,34.44,32l2.11,3.1a10,10,0,0,1,3.39-1.2Z"/><path class="cls-6" d="M38.55,32.05a12.33,12.33,0,0,0-2.26.78l.16.34a11.82,11.82,0,0,1,2.19-.76Z"/><path class="cls-6" d="M39.36,31.86l.08.37a3.41,3.41,0,0,0-.46.1L38.9,32Z"/><polygon class="cls-6" points="35.97 33 36.15 33.33 35.76 33.56 35.55 33.24 35.97 33"/><path class="cls-5" d="M48.69,32.66a44,44,0,0,0-4.59,0l.17,3.74a41,41,0,0,1,4.15,0Z"/><path class="cls-6" d="M47.56,34.3c-.79,0-1.58,0-2.37,0v.38c.78,0,1.56,0,2.34,0Z"/><polygon class="cls-6" points="48.39 34.33 48.37 34.71 47.9 34.68 47.91 34.31 48.39 34.33"/><polygon class="cls-6" points="44.84 34.29 44.85 34.66 44.38 34.68 44.36 34.3 44.84 34.29"/><path class="cls-5" d="M44.1,32.63a32.16,32.16,0,0,0-4.62.51l.72,3.68a28.16,28.16,0,0,1,4.07-.45Z"/><path class="cls-6" d="M43.17,34.37c-.79.05-1.58.13-2.36.25l0,.37c.77-.12,1.55-.19,2.33-.25Z"/><rect class="cls-6" x="43.53" y="34.33" width="0.47" height="0.37" transform="translate(-1.59 2.12) rotate(-2.73)"/><path class="cls-6" d="M40.46,34.67l.06.37-.46.08L40,34.75Z"/><path class="cls-5" d="M39.48,33.14a13.4,13.4,0,0,0-4.78,1.77L36.81,38a9.78,9.78,0,0,1,3.39-1.19Z"/><path class="cls-6" d="M38.81,35a11.66,11.66,0,0,0-2.26.79l.17.33a12,12,0,0,1,2.18-.75Z"/><path class="cls-6" d="M39.63,34.82l.07.37-.46.1-.08-.37Z"/><polygon class="cls-6" points="36.23 35.96 36.41 36.29 36.02 36.52 35.82 36.21 36.23 35.96"/><path class="cls-5" d="M49,35.62a44,44,0,0,0-4.59,0l.16,3.75a38.24,38.24,0,0,1,4.15,0Z"/><path class="cls-6" d="M47.82,37.26c-.79,0-1.58,0-2.37,0v.38c.78,0,1.57,0,2.35,0Z"/><polygon class="cls-6" points="48.65 37.3 48.63 37.67 48.16 37.65 48.18 37.27 48.65 37.3"/><polygon class="cls-6" points="45.1 37.25 45.11 37.63 44.64 37.64 44.63 37.27 45.1 37.25"/><path class="cls-5" d="M44.37,35.59a32,32,0,0,0-4.62.51l.71,3.68a28.16,28.16,0,0,1,4.07-.44Z"/><path class="cls-6" d="M43.43,37.33c-.79.06-1.58.13-2.36.25l.06.38c.77-.12,1.55-.2,2.32-.25Z"/><rect class="cls-6" x="43.8" y="37.29" width="0.47" height="0.37" transform="translate(-1.73 2.14) rotate(-2.73)"/><path class="cls-6" d="M40.72,37.63l.06.37-.46.09-.07-.37C40.41,37.69,40.56,37.65,40.72,37.63Z"/><path class="cls-5" d="M39.75,36.1A13.38,13.38,0,0,0,35,37.87L37.08,41a9.86,9.86,0,0,1,3.38-1.19Z"/><path class="cls-6" d="M39.07,38a12.24,12.24,0,0,0-2.25.78l.16.34a11.13,11.13,0,0,1,2.19-.76Z"/><path class="cls-6" d="M39.89,37.79l.07.37-.45.09-.09-.36A3.94,3.94,0,0,1,39.89,37.79Z"/><polygon class="cls-6" points="36.5 38.93 36.68 39.26 36.28 39.49 36.08 39.17 36.5 38.93"/><path class="cls-1" d="M29.24,16.41v3l.82.82.78-.78V17.5A7,7,0,0,0,29.24,16.41Z"/></g></svg>