<svg id="Layer_1" data-name="Layer 1" xmlns="http://www.w3.org/2000/svg" viewBox="0 0 128 128"><defs><style>.cls-1,.cls-3{fill:none;}.cls-2{fill:#ef5050;}.cls-3{stroke:#000;stroke-linecap:round;stroke-miterlimit:10;}</style></defs><title>Artboard 2</title><path class="cls-1" d="M54.17,18.58A11.5,11.5,0,0,1,64.84,7.12c-.28,0-.56,0-.84,0a11.5,11.5,0,0,0,0,23c.28,0,.56,0,.84,0A11.5,11.5,0,0,1,54.17,18.58Z"/><ellipse class="cls-2" cx="64.84" cy="18.58" rx="10.66" ry="11.46"/><path class="cls-3" d="M53,15.17c.11-.33.22-.65.35-1a11.51,11.51,0,1,1-.86,4.37,13.39,13.39,0,0,1,.15-1.86"/><path class="cls-1" d="M70.34,115.33V100.77H67.91v14.56a7.77,7.77,0,0,0,7.76,7.77,8.25,8.25,0,0,0,1.22-.1,7.76,7.76,0,0,1-6.55-7.67Z"/><path class="cls-1" d="M23.45,68.37a7.73,7.73,0,0,1,1.69-4.83l20-25.16a6.27,6.27,0,0,1,2.07-1.69l.87-.17H45.64l-.87.17a6.27,6.27,0,0,0-2.07,1.69l-20,25.16A7.76,7.76,0,0,0,30,76.05a7.77,7.77,0,0,1-6.54-7.68Z"/><path class="cls-1" d="M95.56,73,85.87,60.87v2.62L86,64l7.17,9a7.78,7.78,0,0,0,6.08,2.92,8.64,8.64,0,0,0,1.24-.1A7.78,7.78,0,0,1,95.56,73Z"/><path class="cls-1" d="M47,115.79v-15H44.66a3.49,3.49,0,0,1-3.45-4.07L47,62.11v-1l-2.85,3.58L38.78,96.7a3.49,3.49,0,0,0,3.45,4.07h2.33v15a7.78,7.78,0,0,0,7.77,7.77,8,8,0,0,0,1.21-.1A7.78,7.78,0,0,1,47,115.79Z"/><path class="cls-2" d="M85.87,60.87,95.56,73a7.78,7.78,0,0,0,4.89,2.82,7.77,7.77,0,0,0,4.83-12.51L85.56,38.62a6.77,6.77,0,0,0-2.3-1.85l-.36-.07a7.83,7.83,0,0,0-1.67-.18H48.07l-.87.17a6.27,6.27,0,0,0-2.07,1.69l-20,25.16A7.77,7.77,0,0,0,30,76.05a7.71,7.71,0,0,0,4.88-2.83l9.69-12.15v1l-.42,2.54L47,61.07v1L41.21,96.7a3.49,3.49,0,0,0,3.45,4.07H47v15a7.78,7.78,0,0,0,6.55,7.67,7.77,7.77,0,0,0,6.55-7.67v-15H70.34v14.56A7.76,7.76,0,0,0,76.89,123a7.77,7.77,0,0,0,6.55-7.67V100.77h2a3.73,3.73,0,0,0,3.68-4.38l-5.7-32.9V60.87L86,64l-.09-.55Z"/><path class="cls-3" d="M33.61,49.82,42.7,38.38a6.9,6.9,0,0,1,.94-1,6.41,6.41,0,0,1,1.13-.73l.87-.17H81.23a7.83,7.83,0,0,1,1.67.18l.36.07a6.77,6.77,0,0,1,2.3,1.85l19.72,24.71A7.77,7.77,0,0,1,93.13,73L83.44,60.87v2.62l5.7,32.9a3.73,3.73,0,0,1-3.68,4.38h-2v14.56a7.77,7.77,0,1,1-15.53,0V100.77H60.09v15a7.77,7.77,0,0,1-15.53,0v-15H42.23a3.49,3.49,0,0,1-3.45-4.07l5.78-34.59v-1L34.87,73.22a7.77,7.77,0,0,1-12.16-9.68L31.12,53"/></svg>