<svg xmlns="http://www.w3.org/2000/svg" viewBox="0 0 64 64"><defs><style>.cls-1,.cls-3,.cls-7{fill:none;}.cls-2{fill:#548ae2;}.cls-3,.cls-4,.cls-5,.cls-6,.cls-7{stroke:#000;stroke-miterlimit:10;}.cls-3{stroke-width:0.75px;}.cls-4{fill:#ffc033;}.cls-4,.cls-5,.cls-6,.cls-7{stroke-width:0.5px;}.cls-5{fill:#ff6833;}.cls-6{fill:#dd1b1b;}.cls-7{stroke-linecap:round;}</style></defs><title>Artboard 3</title><g id="Layer_4" data-name="Layer 4"><rect x="5.08" y="5.6" width="1.49" height="53.84" rx="0.75" transform="translate(11.66 65.04) rotate(-180)"/><rect x="31.43" y="31.94" width="1.15" height="53.84" rx="0.57" transform="translate(-26.86 90.86) rotate(-90)"/><polygon class="cls-1" points="11.51 58.03 11.51 33.87 10.58 33.87 10.58 58.29 17.53 58.29 17.53 58.03 11.51 58.03"/><rect class="cls-2" x="11.51" y="33.87" width="6.01" height="24.17"/><rect class="cls-3" x="10.58" y="33.87" width="6.94" height="24.42"/><rect class="cls-2" x="23.83" y="27.21" width="5.94" height="31.01"/><rect class="cls-3" x="22.82" y="27.21" width="6.94" height="31.01"/><rect class="cls-2" x="37.07" y="20.77" width="5.87" height="37.67"/><rect class="cls-3" x="36" y="20.77" width="6.94" height="37.67"/><circle class="cls-4" cx="39.72" cy="14.32" r="4.51"/><circle class="cls-5" cx="26.3" cy="20.77" r="4.51"/><circle class="cls-6" cx="14.05" cy="26.89" r="4.51"/><circle cx="38" cy="12.82" r="0.43"/><circle cx="41.2" cy="12.82" r="0.43"/><circle cx="24.7" cy="19.48" r="0.43"/><circle cx="27.89" cy="19.48" r="0.43"/><circle cx="12.43" cy="25.46" r="0.43"/><circle cx="15.63" cy="25.46" r="0.43"/><path class="cls-7" d="M37.33,15.6a3.83,3.83,0,0,0,4.78,0"/><line class="cls-7" x1="24.27" y1="22.24" x2="28.57" y2="22.24"/><path class="cls-7" d="M11.85,28.48a3.66,3.66,0,0,1,4.41,0"/></g></svg>