<svg xmlns="http://www.w3.org/2000/svg" viewBox="0 0 64 64"><defs><style>.cls-1,.cls-2{stroke:#000;stroke-miterlimit:10;stroke-width:0.75px;}.cls-2,.cls-3{fill:none;}.cls-4{fill:#548ae2;}</style></defs><title>Artboard 4</title><g id="Sketch"><circle cx="42.54" cy="25.43" r="4.66"/><rect class="cls-1" x="37.7" y="31.91" width="10.05" height="14.2"/><path class="cls-1" d="M37,31.91h.66a0,0,0,0,1,0,0V44.79a1,1,0,0,1-1,1h-.66a1,1,0,0,1-1-1V33.86a2,2,0,0,1,2-2Z"/><rect class="cls-1" x="37.7" y="46.25" width="5.03" height="11.89"/><path class="cls-1" d="M43,46.25h4.7a0,0,0,0,1,0,0V58a.1.1,0,0,1-.1.1H43.14A.1.1,0,0,1,43,58V46.25A0,0,0,0,1,43,46.25Z"/><path class="cls-1" d="M47.75,31.91h.66a2,2,0,0,1,2,2V44.79a1,1,0,0,1-1,1h-.66a1,1,0,0,1-1-1V31.91A0,0,0,0,1,47.75,31.91Z"/><polyline class="cls-2" points="13.34 30.09 19.95 23.1 29.73 23.1 42.7 10.13"/><polygon points="44.15 11.68 41.11 8.63 44.39 8.63 44.15 11.68"/></g><g id="Layer_4" data-name="Layer 4"><rect x="5.04" y="4.92" width="1.49" height="53.84" rx="0.75" transform="translate(11.58 63.67) rotate(180)"/><rect x="31.39" y="31.26" width="1.15" height="53.84" rx="0.57" transform="translate(-26.22 90.14) rotate(-90)"/><polygon class="cls-3" points="11.47 57.35 11.47 33.18 10.54 33.18 10.54 57.61 17.49 57.61 17.49 57.35 11.47 57.35"/><rect class="cls-4" x="11.48" y="33.18" width="6.01" height="24.17"/><rect class="cls-2" x="10.54" y="33.18" width="6.94" height="24.42"/><rect class="cls-4" x="23.79" y="26.52" width="5.94" height="31.01"/><rect class="cls-2" x="22.79" y="26.52" width="6.94" height="31.01"/></g></svg>