<svg xmlns="http://www.w3.org/2000/svg" viewBox="0 0 64 64"><defs><style>.cls-1{fill:#548ae2;}.cls-2{fill:none;}.cls-2,.cls-3{stroke:#000;stroke-miterlimit:10;stroke-width:0.75px;}</style></defs><title>Artboard 1</title><g id="Sketch"><rect x="15.37" y="3.44" width="19.31" height="0.8"/><rect class="cls-1" x="16.89" y="4.7" width="7.97" height="56.17"/><path class="cls-2" d="M15.75,24.75V4.23h9V60.87h-9V28.06"/><line class="cls-2" x1="24.75" y1="6.34" x2="21.92" y2="6.34"/><line class="cls-2" x1="24.75" y1="11.86" x2="21.92" y2="11.86"/><line class="cls-2" x1="24.75" y1="17.38" x2="21.92" y2="17.38"/><line class="cls-2" x1="24.75" y1="22.91" x2="21.92" y2="22.91"/><line class="cls-2" x1="24.75" y1="28.43" x2="21.92" y2="28.43"/><line class="cls-2" x1="24.75" y1="33.95" x2="21.92" y2="33.95"/><line class="cls-2" x1="24.75" y1="39.47" x2="21.92" y2="39.47"/><line class="cls-2" x1="24.75" y1="44.99" x2="21.92" y2="44.99"/><line class="cls-2" x1="24.75" y1="50.52" x2="21.92" y2="50.52"/><line class="cls-2" x1="24.75" y1="56.04" x2="21.92" y2="56.04"/><line class="cls-2" x1="24.75" y1="8.97" x2="20.25" y2="8.97"/><line class="cls-2" x1="24.75" y1="14.62" x2="20.25" y2="14.62"/><line class="cls-2" x1="24.75" y1="20.27" x2="20.25" y2="20.27"/><line class="cls-2" x1="24.75" y1="25.92" x2="20.25" y2="25.92"/><line class="cls-2" x1="24.75" y1="31.56" x2="20.25" y2="31.56"/><line class="cls-2" x1="24.75" y1="37.21" x2="20.25" y2="37.21"/><line class="cls-2" x1="24.75" y1="42.86" x2="20.25" y2="42.86"/><line class="cls-2" x1="24.75" y1="48.5" x2="20.25" y2="48.5"/><line class="cls-2" x1="24.75" y1="54.15" x2="20.25" y2="54.15"/><line class="cls-2" x1="24.75" y1="59.8" x2="20.25" y2="59.8"/><circle cx="38.52" cy="23.05" r="5.43"/><rect class="cls-3" x="32.88" y="30.59" width="11.7" height="16.53"/><path class="cls-3" d="M32.88,30.59h0a0,0,0,0,1,0,0V45.21a1.52,1.52,0,0,1-1.52,1.52h0a1.52,1.52,0,0,1-1.52-1.52V33.63A3,3,0,0,1,32.88,30.59Z"/><rect class="cls-3" x="32.88" y="47.29" width="5.85" height="13.84"/><path class="cls-3" d="M39.11,47.29h5.47a0,0,0,0,1,0,0V61a.1.1,0,0,1-.1.1H39.21a.1.1,0,0,1-.1-.1V47.29A0,0,0,0,1,39.11,47.29Z"/><path class="cls-3" d="M44.58,30.59h0a3,3,0,0,1,3,3V45.21a1.52,1.52,0,0,1-1.52,1.52h0a1.52,1.52,0,0,1-1.52-1.52V30.59a0,0,0,0,1,0,0Z"/></g></svg>